<svg version="1.1" viewBox="0.0 0.0 532.4540682414698 441.9160104986877" fill="none" stroke="none" stroke-linecap="square" stroke-miterlimit="10" xmlns:xlink="http://www.w3.org/1999/xlink" xmlns="http://www.w3.org/2000/svg"><clipPath id="p.0"><path d="m0 0l532.45404 0l0 441.91602l-532.45404 0l0 -441.91602z" clip-rule="nonzero"/></clipPath><g clip-path="url(#p.0)"><path fill="#000000" fill-opacity="0.0" d="m0 0l532.45404 0l0 441.91602l-532.45404 0z" fill-rule="evenodd"/><path fill="#ddd9cd" d="m3.2335958 395.56693l0 -19.398956l8.622047 -25.868744l22.63517 -18.322845l35.566925 -4.3123474l77.60631 9.700806l-10.779526 -16.168l-9.700798 -29.102356l-6.467186 -59.280838l-8.622047 -22.635162l9.700783 -34.490814l11.855652 -11.855652l-12.934387 -29.102356l-20.477692 -28.02362l-8.622047 -23.713913l2.1548538 -28.023624l12.934387 -22.63517l14.010498 -21.556429l47.4252 -9.700788l36.648285 1.0787402l26.944885 14.013123l12.934387 28.023623l15.089249 8.622047l11.858246 36.64567l23.711304 -9.70079l24.790009 -7.5433044l49.580048 16.167976l47.4252 30.178474l46.34909 53.892395l19.40158 44.191605l3.2335815 223.11287z" fill-rule="evenodd"/><path fill="#ffffff" d="m161.67455 211.25722l14.013123 31.257217l26.944885 18.322845l3.2335815 -24.79004l15.091873 -31.257217l-7.545929 -10.779526l-6.4671936 23.713913l-12.934387 9.70079l-18.32283 -9.70079z" fill-rule="evenodd"/><path fill="#d5d0c3" fill-opacity="0.8" d="m488.26248 214.49081l-28.023651 -36.6483l-8.62204 -19.401566l-25.868774 -24.790024l-56.049866 -45.267723l-39.879242 -15.091866l-18.322845 -1.0761108l-32.335968 14.010498l-26.94487 14.013123l-14.013123 31.257217l8.62204 62.514435l14.013138 142.2756l-18.322845 -1.0787659l-25.86876 3.233612l-38.80316 -4.309723l-43.112854 1.0761108l-74.3727 -7.5433044l-30.178478 4.3123474l-20.480316 20.477692l-9.698163 30.178467l0 19.40158l468.8609 35.56955l56.04724 -24.790009z" fill-rule="evenodd"/><path fill="#d5d0c3" fill-opacity="0.8" d="m106.70604 36.645668l19.401573 5.3884544l17.244087 2.1574783l8.622055 20.477688l11.858261 12.934387l23.711288 -5.3884506l-19.401566 19.401573l-10.7769165 19.398949l18.322845 -4.3097076l4.312332 15.089233l-8.624664 11.855652l10.779526 17.24672l24.790024 -15.089249l10.779526 5.3884583l-14.013123 26.944885l-42.036743 37.724396l6.4671936 15.091873l20.4803 5.388443l18.322845 -17.24672l17.24672 -46.34645l3.2335968 -44.191605l46.346466 -30.178474l-16.168 -45.27034l-47.425186 -39.879265l-28.02362 -3.2335958l-39.881897 8.622047l-24.790024 3.2335958z" fill-rule="evenodd"/></g></svg>