<svg version="1.1" viewBox="0.0 0.0 446.2283464566929 585.2703412073491" fill="none" stroke="none" stroke-linecap="square" stroke-miterlimit="10" xmlns:xlink="http://www.w3.org/1999/xlink" xmlns="http://www.w3.org/2000/svg"><clipPath id="p.0"><path d="m0 0l446.22833 0l0 585.2703l-446.22833 0l0 -585.2703z" clip-rule="nonzero"/></clipPath><g clip-path="url(#p.0)"><path fill="#000000" fill-opacity="0.0" d="m0 0l446.22833 0l0 585.2703l-446.22833 0z" fill-rule="evenodd"/><path fill="#ddd9cd" d="m127.18635 342.7533l-3.2335892 10.7795105l-18.322838 11.855652l-32.33596 17.24408l-44.191597 21.559052l-18.322834 7.5433044l-5.391076 11.855652l-5.3884516 33.414703l4.312336 33.41208l15.089239 26.94748l91.6168 44.19165l94.85039 20.477661l95.92915 0l99.160095 -38.800537l40.958008 -48.503937l2.1574707 -34.490814l-16.167969 -29.102356l-29.102356 -18.322815l-47.4252 -24.79004l11.855621 -16.167969l20.480316 -78.682434l1.0761414 -23.713898l19.40155 -73.29396l-6.4671936 -35.56694l0 -21.556427l-12.934357 -62.51706l-21.556458 -25.866138l-37.724396 -26.947508l-46.346466 -17.244095l-46.349075 -6.4671917l-9.698166 6.4671917l-14.013123 -1.0787401l-31.257217 11.855643l-26.947495 18.322834l-18.322845 6.4671936l-11.855637 10.779526l-16.167984 26.944881l-10.776901 29.102364l-8.624672 21.556435l3.2335968 45.27034l0 42.036743l15.089241 39.879257l5.391075 10.779541l9.70079 49.580048z" fill-rule="evenodd"/><path fill="#d5d0c3" fill-opacity="0.8" d="m226.34908 6.4671917l-15.091858 -3.2335958l-25.86876 10.776903l-37.72441 23.713913l-21.556435 5.3884506l-6.4671936 20.477688l-21.556427 22.635174l-6.4671936 30.181099l-6.4671936 43.11286l4.31234 14.013123l15.089233 12.934387l12.934387 20.477692l-6.4671936 40.958008l0 36.64566l17.24672 59.283478l26.944885 61.4357l18.32283 30.181091l30.181107 19.40158l32.33333 18.322815l31.259857 0l31.257202 -15.089233l16.167969 -16.167969l21.556458 -15.091858l18.322815 -25.86615l7.545929 -31.259857l20.477692 -70.05774l-5.3884583 -37.724396l-6.467163 -47.4252l6.467163 -24.792648l25.868774 -1.0761261l-5.391083 -33.41469l-15.089233 -82.99213l-50.658783 -44.191605l-39.879272 -17.24672l-44.19159 -8.622047l3.2335968 76.52756l-33.414703 -4.312332l-29.102371 1.078743l-19.398941 17.244095l-20.480316 39.88188l-6.4671936 28.02362l-17.244095 20.477692l1.0761185 25.868774l14.013115 39.879257l24.79004 17.24672l31.257217 9.700806l25.86876 -29.102371l28.02362 5.388443l20.480316 -1.0761108l21.556427 -2.157486l24.79004 29.102371l20.477692 -9.700806l20.480316 -20.477676l9.700775 -39.881897l-6.4671936 -42.03412l-20.480316 -44.191597l-8.62204 -39.88189l-18.322845 4.31234l-52.81363 -5.3884583" fill-rule="evenodd"/><path fill="#d5d0c3" fill-opacity="0.8" d="m226.34908 5.3884516l22.632553 -4.312336l11.858276 79.761154l-12.934387 -1.078743z" fill-rule="evenodd"/><path fill="#ddd9cd" d="m222.03674 287.78217l2.1548615 -16.165375l19.401566 -10.7795105l30.181122 1.0787354l17.24408 10.776886l-3.2335815 28.02362l3.2335815 14.013123l-21.556427 -14.013123l-20.480316 -1.0761108l-22.632553 10.7769165z" fill-rule="evenodd"/><path fill="#d5d0c3" fill-opacity="0.8" d="m180.0 181.07611l10.779526 -9.700775l19.40158 -3.2335968l15.089233 7.545929l-12.934387 11.855637l-20.480316 -1.0761108z" fill-rule="evenodd"/><path fill="#d5d0c3" fill-opacity="0.8" d="m278.08398 179.78268l10.779541 7.76062l18.322815 0l10.779541 -7.76062l-8.624664 -7.7606354l-17.24411 -3.88031z" fill-rule="evenodd"/></g></svg>