<svg version="1.1" viewBox="0.0 0.0 184.31233595800524 301.79527559055117" fill="none" stroke="none" stroke-linecap="square" stroke-miterlimit="10" xmlns:xlink="http://www.w3.org/1999/xlink" xmlns="http://www.w3.org/2000/svg"><clipPath id="p.0"><path d="m0 0l184.31233 0l0 301.7953l-184.31233 0l0 -301.7953z" clip-rule="nonzero"/></clipPath><g clip-path="url(#p.0)"><path fill="#000000" fill-opacity="0.0" d="m0 0l184.31233 0l0 301.7953l-184.31233 0z" fill-rule="evenodd"/><path fill="#ddd9cd" d="m3.7742782 131.49606l7.543307 6.4671936l3.2335958 6.4671936l-2.1548557 10.779526l0.5380583 10.238846l-3.2335958 7.005249l-2.6929135 5.929138l1.6167979 11.317581l4.8503933 8.62204l-1.0787401 7.545929l2.1548557 8.622055l4.312337 5.3884583l1.0761147 10.779526l4.312336 9.16272l1.6167984 7.005249l1.6167984 11.317581l1.0787392 11.855652l6.4671936 10.238831l10.238842 7.5459595l19.401573 8.62204l17.244095 1.0787354l24.251968 -2.1548462l16.167984 -8.624695l11.317589 -4.3096924l15.089233 -11.317596l9.162735 -15.089233l5.388443 -19.94226l-3.7716522 -13.472443l-6.4671936 -11.855637l-4.312332 -14.013123l6.4671936 -4.3097076l4.312332 -18.32547l-1.6167908 -7.005249l11.317581 -11.855637l0 -12.396332l10.238846 -21.015747l-3.2335968 -5.391075l3.2335968 -10.776901l-6.4671936 -7.545929l5.3884583 -7.005249l0 -8.624672l-4.850403 -8.622047l-5.9265137 -9.70079l-8.083984 -14.010498l-8.083984 -8.083988l-5.929138 -3.7742805l-2.1548615 -9.160105l-11.317581 -3.233595l0 -8.08399l-8.083984 -5.3884516l-15.629921 -10.779528l-13.472443 -1.6167979l-11.317589 2.1548557l-4.850395 5.9291334l-12.3937 2.6955385l-7.0078735 -3.7742782l-14.548553 3.7742782l-6.4671936 10.238846l-1.0787392 9.162729l-11.317585 8.081364l-4.312336 10.77953l-10.776903 12.934383l-5.929134 4.312332l-2.1548557 11.317589l-1.0787401 12.931755l0 9.162735l2.695538 7.005249l-3.7716537 4.8503876l1.6167978 7.5459366l4.3097115 4.850395z" fill-rule="evenodd"/><path fill="#d5d0c3" fill-opacity="0.8039" d="m13.475065 60.35958l-7.5459313 5.3884506l-2.695538 10.779526l2.695538 8.083992l-4.312336 5.3884506l-0.5380578 5.9291306l2.695538 8.622047l-3.7742782 5.929138l3.7742782 19.398956l9.700787 10.779526l2.1548557 14.551178l-4.8503933 3.7716522l1.6167974 12.396332l-4.8503933 3.2335815l-0.5380578 11.855652l5.9265094 12.396317l-0.5380583 11.317596l7.00525 10.776901l0.5380573 7.005249l7.0078735 15.091858l-2.1574802 6.4671936l7.0078754 5.9265137l11.85564 -2.1548615l4.850395 -10.779526l7.545933 8.083984l-8.083992 8.624664l-5.9291306 7.543335l-2.1548576 10.7795105l8.083988 11.317596l7.5433083 4.8503723l13.472443 4.309723l11.317581 0l5.391083 -7.005249l4.3097076 -8.083984l-7.005249 -8.083984l3.7716522 -11.317596l8.083992 5.929138l6.4671936 11.855652l7.545929 -3.7716675l0 -9.16272l6.4671936 -7.5433044l-1.078743 -9.70079l10.238846 -9.70079l4.312332 -8.62468l12.396332 -9.70079l5.388443 -16.165344l4.309723 -4.850403l5.929123 -15.629913l1.616806 -20.477692l11.855637 -10.24147l-0.5380554 -13.472443l9.70079 -22.09449l-0.5380554 -14.551178l-7.0078735 -7.0078735l6.4671936 -7.005249l-1.0761261 -13.472443l-8.624664 -5.3884506l-6.4671936 -19.401573l-10.238846 -10.24147l-9.70079 -13.472443l-9.70079 -4.8503933l-1.6167908 -9.700787l-10.238846 -2.692914l-15.629921 -11.317585l-19.398949 -0.5406824l-3.2335968 8.08399l-16.708664 3.2335958l-10.776901 -4.3097115l-13.472443 5.926509l-2.6955376 12.396326l-11.317585 14.010498l19.401573 -10.776903l-1.6167984 -7.005249l6.4671936 -7.0078735l21.018372 2.1574802l17.784775 -1.6167984l24.790031 5.3884525l3.7716522 18.322832l8.083984 10.238846l-1.6167908 18.325459l1.0787354 11.855644l3.2336044 12.934387l9.700775 8.083984l-4.312332 15.627296l8.622055 1.6167984l-0.5380707 14.551178l-6.4671783 9.70079l-13.47245 4.850403l-7.0078735 7.005249l-16.706032 7.0078735l-12.934387 -9.70079l-17.244095 -2.157486l-20.480312 2.157486l-15.627296 11.317581l-2.1574821 13.472443l-8.622047 4.3097076l0 13.475067l11.317585 7.5433044l8.622047 -8.62204l-1.6167984 -10.779526l1.6167984 -14.010498l17.24672 -4.850403l17.244099 2.6955414l7.0078735 11.314957l5.3884506 10.779526l-3.7716522 9.162735l-4.31234 6.4671936l-8.083992 -8.62468l-16.167976 -3.7716522l-12.934383 2.6955414l-8.622047 13.472443l-15.629921 -15.629929l1.0787411 -15.627289l0.5380573 -21.556427l-2.1548557 -23.175858l-2.1548557 -12.3937l3.233595 -29.640419l2.1548557 -17.784782z" fill-rule="evenodd"/><path fill="#d5d0c3" fill-opacity="0.8039" d="m26.406824 111.99003l6.4671917 4.527031l5.9291344 1.5065613l7.545933 -1.5065613l4.8503914 -3.7737503l-4.8503914 -4.5270386l-7.545933 -1.510231l-7.005249 0z" fill-rule="evenodd"/><path fill="#d5d0c3" fill-opacity="0.8039" d="m80.8399 110.480316l7.5433044 4.3097076l9.162727 0l8.622047 -3.7716522l-5.3884506 -5.3884506l-8.622047 -2.1574783l-6.467186 2.1574783z" fill-rule="evenodd"/></g></svg>